<svg style="display: none;" aria-hidden="true" xmlns="http://www.w3.org/2000/svg" xmlns:xlink="http://www.w3.org/1999/xlink"><symbol class="aionicon" viewBox="0 0 512 512" id="svg-arrow-right"><path fill="none" stroke-linecap="round" stroke="#fff" stroke-linejoin="round" stroke-width="48" d="M268 112l144 144-144 144M392 256H100"/></symbol><symbol class="bionicon" viewBox="0 0 512 512" id="svg-cart"><circle cx="176" cy="416" r="16" fill="none" stroke="currentColor" stroke-linecap="round" stroke-linejoin="round" stroke-width="32"/><circle cx="400" cy="416" r="16" fill="none" stroke="currentColor" stroke-linecap="round" stroke-linejoin="round" stroke-width="32"/><path fill="none" stroke="currentColor" stroke-linecap="round" stroke-linejoin="round" stroke-width="32" d="M48 80h64l48 272h256"/><path d="M160 288h249.44a8 8 0 007.85-6.43l28.8-144a8 8 0 00-7.85-9.57H128" fill="none" stroke="currentColor" stroke-linecap="round" stroke-linejoin="round" stroke-width="32"/></symbol><symbol fill="none" viewBox="0 0 14 10" id="svg-check"><path d="M13 1L4.75 9 1 5.364" stroke="#fff" stroke-width="2" stroke-linecap="round" stroke-linejoin="round"/></symbol><symbol class="dionicon" viewBox="0 0 512 512" id="svg-clock"><path d="M256 64C150 64 64 150 64 256s86 192 192 192 192-86 192-192S362 64 256 64z" fill="none" stroke="currentColor" stroke-miterlimit="10" stroke-width="32"/><path fill="none" stroke="currentColor" stroke-linecap="round" stroke-linejoin="round" stroke-width="32" d="M256 128v144h96"/></symbol><symbol viewBox="0 0 18 18" id="svg-close"><defs><path id="ea" d="M691.485 160.07l-1.414 1.415-7.071-7.071-7.071 7.071-1.414-1.414 7.07-7.071-7.07-7.071 1.414-1.415 7.07 7.071 7.072-7.07 1.414 1.414-7.07 7.07z"/></defs><use fill="#fff" xlink:href="#ea" transform="translate(-674 -144)"/></symbol><symbol class="fionicon" viewBox="0 0 512 512" id="svg-location"><path d="M336.76 161l-186.53 82.35c-10.47 4.8-6.95 20.67 4.57 20.67H244a4 4 0 014 4v89.18c0 11.52 16 15 20.78 4.56L351 175.24A10.73 10.73 0 00336.76 161z"/><path d="M448 256c0-106-86-192-192-192S64 150 64 256s86 192 192 192 192-86 192-192z" fill="none" stroke="currentColor" stroke-miterlimit="10" stroke-width="32"/></symbol><symbol class="gionicon" viewBox="0 0 512 512" id="svg-logo-facebook"><path d="M480 257.35c0-123.7-100.3-224-224-224s-224 100.3-224 224c0 111.8 81.9 204.47 189 221.29V322.12h-56.89v-64.77H221V208c0-56.13 33.45-87.16 84.61-87.16 24.51 0 50.15 4.38 50.15 4.38v55.13H327.5c-27.81 0-36.51 17.26-36.51 35v42h62.12l-9.92 64.77H291v156.54c107.1-16.81 189-109.48 189-221.31z" fill-rule="evenodd"/></symbol><symbol class="hionicon" viewBox="0 0 512 512" id="svg-logo-instagram"><path d="M349.33 69.33a93.62 93.62 0 0193.34 93.34v186.66a93.62 93.62 0 01-93.34 93.34H162.67a93.62 93.62 0 01-93.34-93.34V162.67a93.62 93.62 0 0193.34-93.34h186.66m0-37.33H162.67C90.8 32 32 90.8 32 162.67v186.66C32 421.2 90.8 480 162.67 480h186.66C421.2 480 480 421.2 480 349.33V162.67C480 90.8 421.2 32 349.33 32z"/><path d="M377.33 162.67a28 28 0 1128-28 27.94 27.94 0 01-28 28zM256 181.33A74.67 74.67 0 11181.33 256 74.75 74.75 0 01256 181.33m0-37.33a112 112 0 10112 112 112 112 0 00-112-112z"/></symbol><symbol class="iionicon" viewBox="0 0 512 512" id="svg-logo-twitter"><path d="M496 109.5a201.8 201.8 0 01-56.55 15.3 97.51 97.51 0 0043.33-53.6 197.74 197.74 0 01-62.56 23.5A99.14 99.14 0 00348.31 64c-54.42 0-98.46 43.4-98.46 96.9a93.21 93.21 0 002.54 22.1 280.7 280.7 0 01-203-101.3A95.69 95.69 0 0036 130.4c0 33.6 17.53 63.3 44 80.7A97.5 97.5 0 0135.22 199v1.2c0 47 34 86.1 79 95a100.76 100.76 0 01-25.94 3.4 94.38 94.38 0 01-18.51-1.8c12.51 38.5 48.92 66.5 92.05 67.3A199.59 199.59 0 0139.5 405.6a203 203 0 01-23.5-1.4A278.68 278.68 0 00166.74 448c181.36 0 280.44-147.7 280.44-275.8 0-4.2-.11-8.4-.31-12.5A198.48 198.48 0 00496 109.5z"/></symbol><symbol class="jionicon" viewBox="0 0 512 512" id="svg-logo-youtube"><path d="M508.64 148.79c0-45-33.1-81.2-74-81.2C379.24 65 322.74 64 265 64h-18c-57.6 0-114.2 1-169.6 3.6C36.6 67.6 3.5 104 3.5 149 1 184.59-.06 220.19 0 255.79q-.15 53.4 3.4 106.9c0 45 33.1 81.5 73.9 81.5 58.2 2.7 117.9 3.9 178.6 3.8q91.2.3 178.6-3.8c40.9 0 74-36.5 74-81.5 2.4-35.7 3.5-71.3 3.4-107q.34-53.4-3.26-106.9zM207 353.89v-196.5l145 98.2z"/></symbol><symbol class="kionicon" viewBox="0 0 512 512" id="svg-mail-outline"><rect x="48" y="96" width="416" height="320" rx="40" ry="40" fill="none" stroke="currentColor" stroke-linecap="round" stroke-linejoin="round" stroke-width="32"/><path fill="none" stroke="currentColor" stroke-linecap="round" stroke-linejoin="round" stroke-width="32" d="M112 160l144 112 144-112"/></symbol><symbol viewBox="0 0 13 24" id="svg-p-left"><path fill-rule="evenodd" fill="#fff" d="M1.453,12.000 L12.988,23.284 L12.267,23.989 L0.732,12.705 L0.011,12.000 L0.732,11.295 L12.267,0.010 L12.988,0.715 L1.453,12.000 Z"/></symbol><symbol fill="#fff" viewBox="0 0 14 25" id="svg-p-right"><path fill-rule="evenodd" d="M12.107,12.500 L0.793,1.186 L1.500,0.479 L12.814,11.793 L13.521,12.500 L12.814,13.207 L1.500,24.521 L0.793,23.814 L12.107,12.500 Z"/></symbol><symbol class="nionicon" viewBox="0 0 512 512" id="svg-phone"><path d="M451 374c-15.88-16-54.34-39.35-73-48.76-24.3-12.24-26.3-13.24-45.4.95-12.74 9.47-21.21 17.93-36.12 14.75s-47.31-21.11-75.68-49.39-47.34-61.62-50.53-76.48 5.41-23.23 14.79-36c13.22-18 12.22-21 .92-45.3-8.81-18.9-32.84-57-48.9-72.8C119.9 44 119.9 47 108.83 51.6A160.15 160.15 0 0083 65.37C67 76 58.12 84.83 51.91 98.1s-9 44.38 23.07 102.64 54.57 88.05 101.14 134.49S258.5 406.64 310.85 436c64.76 36.27 89.6 29.2 102.91 23s22.18-15 32.83-31a159.09 159.09 0 0013.8-25.8C465 391.17 468 391.17 451 374z" fill="none" stroke="currentColor" stroke-miterlimit="10" stroke-width="32"/></symbol><symbol class="oionicon" viewBox="0 0 512 512" id="svg-star"><path d="M480 208H308L256 48l-52 160H32l140 96-54 160 138-100 138 100-54-160z" fill="none" stroke="currentColor" stroke-linejoin="round" stroke-width="32"/></symbol></svg>